<svg xmlns="http://www.w3.org/2000/svg" viewBox="0 0 48 48" fill="none" stroke="currentColor" stroke-width="2.5" stroke-linecap="round" stroke-linejoin="round">
  <!-- Shoe body -->
  <path d="M6 34c0-4 2-8 6-10l4-8c1-2 3-3 5-3h2c2 0 4 1 5 3l2 4c1 2 3 3 5 3h4c3 0 5 2 5 5v2c0 2-2 4-4 4H10c-2 0-4-2-4-4v-2z" fill="currentColor" stroke="none"/>
  <!-- Shoe sole -->
  <rect x="4" y="34" width="40" height="4" rx="2" fill="currentColor" stroke="none"/>
  <!-- Lace lines -->
  <line x1="16" y1="20" x2="22" y2="20" stroke="rgba(255,255,255,0.4)" stroke-width="1.5"/>
  <line x1="15" y1="24" x2="23" y2="24" stroke="rgba(255,255,255,0.4)" stroke-width="1.5"/>
  <line x1="14" y1="28" x2="24" y2="28" stroke="rgba(255,255,255,0.4)" stroke-width="1.5"/>
</svg>
